PathFileType	4	(X/Y/Z)
DataRate	CameraRate	NumFrames	NumMarkers	Units	OrigDataRate	OrigDataStartFrame	OrigNumFrames	
	120.0	120.0	7	39	mm	120.0	87	231
Frame#	Time	midhip	hip_r	hip_l	knee_r	knee_l	ankle_r	ankle_l	midasis	asis_r	asis_l	psis_r	psis_l	epicondLat_r	epicondLat_l	epicondMed_r	epicondMed_l	malleolusLat_r	malleolusLat_l	malleolusMedv_r	malleolusMedv_l	heel_r	heel_l	sternalnotch	xyphoidprocess	neck	subclavicle_r	subclavicle_l	toe_r	toe_l	thighwand_r	thighwand_l	upperleg1_r	upperleg1_l	upperleg2_r	upperleg2_l	shankwand_r	shankwand_l	lowerleg1_r	lowerleg1_l
	X1	Y1	Z1	X2	Y2	Z2	X3	Y3	Z3	X4	Y4	Z4	X5	Y5	Z5	X6	Y6	Z6	X7	Y7	Z7	X8	Y8	Z8	X9	Y9	Z9	X10	Y10	Z10	X11	Y11	Z11	X12	Y12	Z12	X13	Y13	Z13	X14	Y14	Z14	X15	Y15	Z15	X16	Y16	Z16	X17	Y17	Z17	X18	Y18	Z18	X19	Y19	Z19	X20	Y20	Z20	X21	Y21	Z21	X22	Y22	Z22	X23	Y23	Z23	X24	Y24	Z24	X25	Y25	Z25	X26	Y26	Z26	X27	Y27	Z27	X28	Y28	Z28	X29	Y29	Z29	X30	Y30	Z30	X31	Y31	Z31	X32	Y32	Z32	X33	Y33	Z33	X34	Y34	Z34	X35	Y35	Z35	X36	Y36	Z36	X37	Y37	Z37	X38	Y38	Z38	X39	Y39	Z39

	87	0.72500	1360.418	701.036	-227.320	1358.042	703.483	-164.498	1362.794	698.590	-290.142	1339.428	374.168	-139.169	1340.774	378.098	-308.180	1355.225	57.516	-109.546	1336.412	59.311	-343.650	1435.823	752.639	-226.478	1432.290	756.277	-133.051	1439.357	749.000	-319.904	1296.481	816.508	-214.367	1297.786	809.548	-268.808	1337.486	378.147	-88.864	1340.612	380.919	-358.100	1336.972	375.686	-189.332	1342.254	366.260	-254.895	1345.248	60.001	-77.663	1330.401	63.149	-377.405	1351.846	65.283	-137.207	1332.713	60.336	-313.823	1299.874	38.982	-112.437	1283.313	40.863	-338.580	1399.064	1115.282	-243.175	1451.927	981.045	-239.606	1323.222	1150.080	-243.700	1398.387	1127.768	-182.964	1403.811	1127.413	-298.113	1451.416	40.045	-99.156	1432.123	38.615	-357.447	1340.932	485.056	-20.858	1476.855	475.915	-334.514	1381.057	538.178	-91.479	1412.512	530.062	-273.806	1385.684	453.728	-98.696	1396.028	443.847	-274.783	1316.875	168.092	-15.072	1420.528	163.370	-371.769	1329.311	219.357	-78.833	1360.052	216.485	-344.017
	88	0.73333	1360.425	701.028	-227.307	1358.053	703.475	-164.485	1362.797	698.581	-290.129	1339.433	374.153	-139.178	1340.790	378.080	-308.177	1355.246	57.488	-109.548	1336.411	59.301	-343.667	1435.834	752.625	-226.470	1432.307	756.264	-133.053	1439.361	748.987	-319.886	1296.493	816.504	-214.364	1297.801	809.544	-268.805	1337.483	378.129	-88.873	1340.628	380.902	-358.097	1336.947	375.642	-189.332	1342.266	366.190	-254.875	1345.265	59.973	-77.666	1330.401	63.142	-377.422	1351.859	65.227	-137.184	1332.704	60.306	-313.828	1299.878	38.959	-112.422	1283.313	40.852	-338.577	1399.073	1115.247	-243.084	1451.952	981.017	-239.507	1323.345	1150.004	-243.697	1398.426	1127.749	-182.883	1403.790	1127.364	-298.021	1451.430	40.014	-99.165	1432.135	38.599	-357.448	1340.934	485.035	-20.854	1476.871	475.904	-334.505	1380.868	538.155	-91.390	1412.503	529.983	-273.761	1385.623	453.659	-98.682	1396.035	443.804	-274.754	1316.883	168.073	-15.075	1420.535	163.362	-371.771	1329.307	219.293	-78.820	1360.072	216.474	-343.989
	89	0.74167	1360.432	701.023	-227.303	1358.064	703.469	-164.481	1362.801	698.577	-290.126	1339.438	374.136	-139.191	1340.797	378.061	-308.179	1355.286	57.456	-109.554	1336.403	59.292	-343.685	1435.840	752.621	-226.469	1432.318	756.258	-133.060	1439.363	748.984	-319.878	1296.507	816.491	-214.362	1297.816	809.537	-268.803	1337.482	378.109	-88.885	1340.635	380.884	-358.099	1336.984	375.618	-189.364	1342.250	366.175	-254.844	1345.301	59.940	-77.674	1330.393	63.134	-377.440	1351.851	65.170	-137.177	1332.681	60.265	-313.837	1299.881	38.932	-112.411	1283.310	40.836	-338.576	1399.048	1115.195	-243.024	1451.884	980.948	-239.432	1323.372	1149.964	-243.659	1398.390	1127.699	-182.829	1403.782	1127.310	-297.955	1451.435	39.990	-99.175	1432.144	38.590	-357.453	1340.930	485.012	-20.852	1476.883	475.895	-334.503	1380.723	538.149	-91.328	1412.513	529.945	-273.735	1385.599	453.617	-98.687	1396.032	443.792	-274.728	1316.896	168.050	-15.082	1420.536	163.353	-371.780	1329.297	219.221	-78.823	1360.075	216.473	-343.977
	90	0.75000	1360.437	701.023	-227.307	1358.070	703.468	-164.485	1362.805	698.578	-290.129	1339.445	374.121	-139.203	1340.797	378.047	-308.185	1355.331	57.427	-109.564	1336.396	59.278	-343.694	1435.843	752.625	-226.473	1432.323	756.260	-133.069	1439.363	748.990	-319.878	1296.525	816.476	-214.362	1297.831	809.532	-268.801	1337.484	378.094	-88.897	1340.636	380.870	-358.105	1336.971	375.601	-189.382	1342.250	366.193	-254.890	1345.343	59.910	-77.684	1330.387	63.121	-377.449	1351.832	65.130	-137.209	1332.677	60.212	-313.851	1299.881	38.912	-112.407	1283.305	40.819	-338.578	1399.050	1115.149	-243.074	1451.839	980.883	-239.502	1323.391	1149.942	-243.615	1398.363	1127.630	-182.885	1403.819	1127.283	-297.986	1451.435	39.977	-99.186	1432.147	38.586	-357.459	1340.923	484.993	-20.853	1476.892	475.885	-334.502	1380.756	538.126	-91.356	1412.523	529.968	-273.781	1385.604	453.590	-98.707	1396.038	443.798	-274.766	1316.913	168.028	-15.092	1420.534	163.341	-371.791	1329.314	219.164	-78.851	1360.073	216.479	-344.001
	91	0.75833	1360.440	701.029	-227.317	1358.072	703.473	-164.494	1362.809	698.585	-290.139	1339.455	374.114	-139.214	1340.793	378.041	-308.194	1355.348	57.409	-109.578	1336.395	59.260	-343.690	1435.844	752.634	-226.481	1432.323	756.268	-133.082	1439.366	749.000	-319.881	1296.548	816.466	-214.365	1297.846	809.532	-268.802	1337.491	378.086	-88.909	1340.636	380.864	-358.114	1336.899	375.591	-189.387	1342.282	366.178	-254.966	1345.358	59.891	-77.699	1330.388	63.101	-377.445	1351.823	65.101	-137.248	1332.680	60.172	-313.863	1299.879	38.906	-112.413	1283.300	40.808	-338.581	1399.060	1115.131	-243.163	1451.793	980.843	-239.611	1323.293	1149.987	-243.553	1398.325	1127.583	-182.975	1403.883	1127.290	-298.060	1451.432	39.973	-99.197	1432.146	38.586	-357.466	1340.919	484.982	-20.856	1476.902	475.873	-334.507	1380.768	538.121	-91.389	1412.516	529.965	-273.834	1385.581	453.563	-98.733	1396.058	443.803	-274.822	1316.930	168.015	-15.103	1420.533	163.328	-371.800	1329.364	219.135	-78.902	1360.061	216.474	-344.034
	92	0.76667	1360.437	701.044	-227.327	1358.069	703.487	-164.505	1362.806	698.602	-290.149	1339.467	374.114	-139.223	1340.790	378.043	-308.204	1355.317	57.409	-109.595	1336.398	59.244	-343.675	1435.840	752.650	-226.491	1432.319	756.282	-133.096	1439.362	749.018	-319.885	1296.572	816.467	-214.370	1297.860	809.540	-268.805	1337.504	378.086	-88.918	1340.636	380.865	-358.124	1336.925	375.620	-189.426	1342.287	366.176	-254.969	1345.326	59.891	-77.716	1330.393	63.083	-377.431	1351.838	65.107	-137.262	1332.675	60.178	-313.863	1299.876	38.915	-112.425	1283.295	40.807	-338.584	1399.078	1115.144	-243.185	1451.772	980.841	-239.600	1323.196	1150.054	-243.507	1398.295	1127.590	-182.991	1403.950	1127.306	-298.082	1451.428	39.981	-99.208	1432.142	38.592	-357.474	1340.919	484.980	-20.863	1476.908	475.863	-334.520	1380.779	538.143	-91.404	1412.520	529.948	-273.842	1385.598	453.579	-98.759	1396.066	443.813	-274.829	1316.939	168.015	-15.113	1420.533	163.319	-371.806	1329.382	219.158	-78.942	1360.050	216.460	-344.040
	93	0.77500	1360.420	701.071	-227.323	1358.057	703.510	-164.500	1362.782	698.632	-290.146	1339.479	374.123	-139.226	1340.790	378.050	-308.212	1355.245	57.425	-109.608	1336.400	59.236	-343.655	1435.823	752.677	-226.491	1432.311	756.302	-133.102	1439.335	749.051	-319.880	1296.598	816.477	-214.377	1297.873	809.551	-268.811	1337.519	378.093	-88.920	1340.640	380.874	-358.132	1337.067	375.624	-189.436	1342.267	366.210	-254.912	1345.256	59.909	-77.728	1330.397	63.071	-377.411	1351.872	65.133	-137.261	1332.690	60.205	-313.854	1299.873	38.931	-112.441	1283.292	40.814	-338.588	1399.103	1115.151	-243.151	1451.789	980.846	-239.531	1323.325	1150.036	-243.519	1398.307	1127.608	-182.955	1403.989	1127.304	-298.053	1451.422	40.002	-99.215	1432.136	38.604	-357.479	1340.926	484.989	-20.871	1476.911	475.857	-334.534	1380.800	538.167	-91.403	1412.536	529.962	-273.843	1385.661	453.615	-98.750	1396.060	443.827	-274.804	1316.934	168.029	-15.117	1420.534	163.314	-371.806	1329.380	219.187	-78.945	1360.071	216.434	-344.024
